<svg xmlns="http://www.w3.org/2000/svg" viewBox="0 0 246.59 246.59"><defs><style>.cls-1{opacity:0.32;}.cls-2{fill:#fff;fill-opacity:0;stroke-width:3.53px;}.cls-2,.cls-6,.cls-8{stroke:#eaeae0;}.cls-2,.cls-3,.cls-4,.cls-5,.cls-6{stroke-miterlimit:15.12;}.cls-2,.cls-3,.cls-4,.cls-5,.cls-7,.cls-8{stroke-opacity:0;}.cls-3,.cls-4,.cls-5,.cls-6,.cls-7{fill:none;}.cls-3,.cls-4,.cls-5,.cls-7{stroke:#000;}.cls-3{stroke-width:1.29px;}.cls-4{stroke-width:1.53px;}.cls-5,.cls-6,.cls-7{stroke-width:1.56px;}.cls-6{stroke-opacity:0.06;}.cls-7,.cls-8{stroke-linejoin:bevel;}.cls-8,.cls-9{fill:#eaeae0;}.cls-8{fill-opacity:0.38;stroke-width:0.29px;}.cls-9{fill-opacity:0.4;opacity:0.83;isolation:isolate;}</style></defs><g id="Layer_2" data-name="Layer 2"><g id="svg833"><g id="layer5" class="cls-1"><circle id="path1389" class="cls-2" cx="123.29" cy="123.29" r="121.53"/><path id="path1450" class="cls-3" d="M141.12,162.21a2.32,2.32,0,0,1,.12-1.66,4.63,4.63,0,0,1,.83-1.14,19.75,19.75,0,0,1,2.15-2.14,19.42,19.42,0,0,1,5.36-2.8c2.18-.86,4.38-1.68,6.61-2.39a105.57,105.57,0,0,1,12-2.92,7.1,7.1,0,0,1,2.38-.17,8.74,8.74,0,0,1,2.09.71c.19.08.39.16.58.26a1.72,1.72,0,0,1,.49.4,1.64,1.64,0,0,1,.33.89,3.78,3.78,0,0,1-.09.95,7.56,7.56,0,0,1-.78,2.21A9.59,9.59,0,0,1,171,157a34.84,34.84,0,0,1-8.7,5.3c-4.18,1.89-8.72,3.38-13.29,2.92-.94-.09-1.87-.27-2.8-.41a11.6,11.6,0,0,1-2.62-.6,5.21,5.21,0,0,1-2.44-2Z"/><path id="path1454" class="cls-4" d="M82.38,152.83a35.88,35.88,0,0,1,9.66-13,20.2,20.2,0,0,1,8.36-4.54,17.65,17.65,0,0,1,12.18,2.09,23.66,23.66,0,0,1,7.14,6"/><path id="path1458" class="cls-5" d="M189.28,125.51a41.09,41.09,0,0,1,5.19-10.6,16.8,16.8,0,0,1,2.54-3,7.68,7.68,0,0,1,3.44-1.86,7.25,7.25,0,0,1,3.58.21,11.47,11.47,0,0,1,3.2,1.66,15.64,15.64,0,0,1,5.05,6.2"/><path id="path1462" class="cls-6" d="M205.14,35.84a328.13,328.13,0,0,0-36,4.61c-15.18,2.8-30.15,6.66-45,11-18,5.2-35.78,11.05-53.63,16.72C61.27,71.05,52,73.94,43.1,77.64c-1.75.73-3.49,1.49-5.19,2.31a19,19,0,0,0-3.46,2,16.66,16.66,0,0,0-4,4.9,42,42,0,0,0-2.88,6.06,90.48,90.48,0,0,0-3.46,11.53,144.79,144.79,0,0,0-3.75,20.76,125.73,125.73,0,0,0,1.44,32.29,123.71,123.71,0,0,0,9.52,32.29A97.93,97.93,0,0,0,55.5,222.1"/><path id="path1470" class="cls-7" d="M96.08,171.42c6.93-1.84,14-3.75,20.94-5.58l1.28,7.31-20.39,5.51Z"/><path id="path1472" class="cls-7" d="M195.27,142.26l.1,7.55,12.84-4.9v-6.52Z"/><path id="path1478" class="cls-8" d="M44.7,213.59A119.76,119.76,0,0,1,3.78,117.88a117.56,117.56,0,0,1,12.51-48.1,111.35,111.35,0,0,1,22.48-31,108.64,108.64,0,0,1,22.8-18A119.19,119.19,0,0,1,111.81,4.16,154.25,154.25,0,0,1,133.51,4a120.27,120.27,0,0,1,67.83,28.49c2.81,2.4,2.91,2.51,2.08,2.59-27.26,2.4-47.65,6.35-78.42,15.2-13.16,3.79-51.8,15.9-67.76,21.24a177.39,177.39,0,0,0-20.1,7.94,16.47,16.47,0,0,0-7.65,7.36c-3.2,5.58-6.23,15.59-8.56,28.26a117.41,117.41,0,0,0-.71,37.51C23.6,178.2,32,198,46.09,213.87A12.39,12.39,0,0,1,48,216.24,32.35,32.35,0,0,1,44.7,213.59Z"/></g><g id="layer2" class="cls-1"><path id="path1480" class="cls-9" d="M88.67,208.16c0-.2-2.19-13.46-4.87-29.47s-5.52-33.77-6.33-39.49-2.39-15.81-3.53-22.43c-2.31-13.47-2.4-15.75-.75-19,1.56-3,3.28-4.14,9.22-6,4.85-1.48,43-12.75,54.17-16,16.71-4.86,31.75-8.57,50.08-12.35,16.17-3.33,16.39-3.37,18.08-3,3,.68,4.29,2.16,5.2,6.1,1.38,6,4.5,29.35,5.12,38.33,1.06,15.4,2.13,42.1,1.88,47.09-.39,7.53-1.5,14.29-2.52,15.31s-16.38,7.36-26.26,10.77c-4.37,1.5-14.92,5.18-23.44,8.16-18.25,6.39-22.79,7.79-37.72,11.67-6.17,1.6-14.87,4.09-19.34,5.54-7.28,2.35-17.09,5-18.47,5-.29,0-.52-.16-.52-.36Zm19.57-31.28a91.67,91.67,0,0,0,10.53-3.2c.44-.42.41-1.2-.17-4.43-.42-2.34-.92-4-1.24-4.12-.69-.27-21.21,5.16-21.82,5.77-.85.86,1.39,8.62,2.51,8.66.11,0,4.7-1.2,10.19-2.68Zm47.68-11.43c6.11-1.52,14-5.82,16.9-9.17,1.56-1.83,2.42-4.47,1.89-5.86-.4-1-3.05-2.25-4.93-2.25s-9.88,1.88-14.85,3.51c-8.37,2.75-12.72,5.31-14.33,8.43-.77,1.48-.2,3.15,1.42,4.23,2.5,1.65,9.47,2.21,13.9,1.11ZM84.8,150.31c3.11-5.66,8.29-10.82,13-13,6.08-2.78,13.26-1,19.19,4.79,1.89,1.84,2.11,2,2.85,1.41s.73-.66-1-2.47c-5.3-5.45-12.82-8.08-18.73-6.57-4.07,1.05-6.43,2.56-10.83,7-5.57,5.57-9,11.62-6.57,11.62.32,0,1.26-1.24,2.09-2.75Zm117.51-2.12a41.44,41.44,0,0,0,6.71-3,13.21,13.21,0,0,0,.34-3.64c0-4.58.1-4.55-7.86-2.19a42.14,42.14,0,0,0-6.91,2.41,17.9,17.9,0,0,0-.3,4.14c0,3.48.32,4.67,1.31,4.67.19,0,3.21-1.1,6.71-2.43Zm-11.79-23.36c.61-2.36,4.37-9,6.25-11.09,2.95-3.22,5.07-3.65,8.76-1.74a21.9,21.9,0,0,1,5.43,5.51c.5.94,1.44,1.18,1.88.47s-1.59-3.73-3.67-5.64c-4.64-4.28-9.72-4.42-13.53-.39-2.65,2.81-7.07,11-7.07,13.15,0,1,1.67.79,2-.27Z"/></g></g></g></svg>